<svg width="101" height="101" viewBox="0 0 101 101" fill="none" xmlns="http://www.w3.org/2000/svg">
<g clip-path="url(#clip0_146_41)">
<path d="M50.5 101C78.3904 101 101 78.3904 101 50.5C101 22.6096 78.3904 0 50.5 0C22.6096 0 0 22.6096 0 50.5C0 78.3904 22.6096 101 50.5 101Z" fill="#3DB39E"/>
<path d="M98.5199 34.8672C97.0897 30.4707 95.0778 26.3398 92.568 22.5654L48.3633 68.6073L48.4522 73.731L50.5388 73.7179L98.5199 34.8672Z" fill="#37A18E"/>
<path d="M101.077 19.8789L92.0715 10.9818C90.8424 9.7668 88.8486 9.7668 87.6194 10.9818L49.1253 50.6324L32.525 34.23C31.2938 33.015 29.3021 33.015 28.0719 34.23L20.0898 42.1171C18.8607 43.3311 18.8607 45.3006 20.0898 46.5146L46.7326 72.8362C47.4427 73.5382 48.4052 73.821 49.3304 73.7119C50.2555 73.82 51.218 73.5382 51.9281 72.8362L101.077 24.2775C102.306 23.0624 102.306 21.0939 101.077 19.8789Z" fill="#F8F8F8"/>
<path d="M51.929 72.8362L101.078 24.2774C102.307 23.0624 102.307 21.0939 101.078 19.8789L99.6081 18.4265L49.0505 68.1539L21.2068 41.0131L20.0918 42.1161C18.8626 43.3301 18.8626 45.2996 20.0918 46.5136L46.7336 72.8362C47.4436 73.5382 48.4061 73.821 49.3313 73.7119C50.2565 73.821 51.219 73.5392 51.929 72.8362Z" fill="#EBEBEB"/>
</g>
<defs>
<clipPath id="clip0_146_41">
<rect width="101" height="101" fill="white"/>
</clipPath>
</defs>
</svg>
