<svg width="202" height="104" viewBox="0 0 202 104" fill="none" xmlns="http://www.w3.org/2000/svg">
<path d="M10.0636 86.9091H12.0451V95.5192C12.0451 96.4354 11.8299 97.2472 11.3995 97.9545C10.9691 98.6577 10.364 99.2116 9.58416 99.6165C8.80433 100.017 7.89027 100.217 6.84197 100.217C5.79794 100.217 4.88601 100.017 4.10618 99.6165C3.32635 99.2116 2.72124 98.6577 2.29084 97.9545C1.86044 97.2472 1.64524 96.4354 1.64524 95.5192V86.9091H3.62038V95.3594C3.62038 95.9517 3.75036 96.478 4.0103 96.9382C4.2745 97.3984 4.64737 97.7607 5.12891 98.0249C5.61044 98.2848 6.18146 98.4148 6.84197 98.4148C7.50675 98.4148 8.0799 98.2848 8.56143 98.0249C9.04723 97.7607 9.41797 97.3984 9.67365 96.9382C9.93359 96.478 10.0636 95.9517 10.0636 95.3594V86.9091ZM14.7633 103.682V90.1818H16.6298V91.7734H16.7896C16.9004 91.5689 17.0602 91.3324 17.269 91.0639C17.4778 90.7955 17.7676 90.5611 18.1383 90.3608C18.5091 90.1562 18.9991 90.054 19.6085 90.054C20.4011 90.054 21.1085 90.2543 21.7306 90.6548C22.3528 91.0554 22.8407 91.6328 23.1944 92.3871C23.5524 93.1413 23.7314 94.049 23.7314 95.1101C23.7314 96.1712 23.5545 97.081 23.2008 97.8395C22.8471 98.5937 22.3613 99.1754 21.7434 99.5845C21.1255 99.9893 20.4203 100.192 19.6277 100.192C19.0311 100.192 18.5431 100.092 18.1639 99.8913C17.7889 99.6911 17.4949 99.4567 17.2818 99.1882C17.0687 98.9197 16.9047 98.6811 16.7896 98.4723H16.6745V103.682H14.7633ZM16.6362 95.0909C16.6362 95.7812 16.7363 96.3864 16.9366 96.9062C17.1369 97.4261 17.4267 97.8331 17.8059 98.1271C18.1852 98.4169 18.6497 98.5618 19.1994 98.5618C19.7704 98.5618 20.2477 98.4105 20.6312 98.108C21.0147 97.8011 21.3045 97.3857 21.5005 96.8615C21.7008 96.3374 21.801 95.7472 21.801 95.0909C21.801 94.4432 21.7029 93.8615 21.5069 93.3459C21.3152 92.8303 21.0254 92.4233 20.6376 92.125C20.2541 91.8267 19.7747 91.6776 19.1994 91.6776C18.6454 91.6776 18.1767 91.8203 17.7931 92.1058C17.4139 92.3913 17.1262 92.7898 16.9302 93.3011C16.7342 93.8125 16.6362 94.4091 16.6362 95.0909ZM27.7839 86.9091V100H25.8727V86.9091H27.7839ZM34.4908 100.198C33.5703 100.198 32.767 99.9872 32.081 99.5653C31.3949 99.1435 30.8622 98.5533 30.483 97.7947C30.1037 97.0362 29.9141 96.1499 29.9141 95.1357C29.9141 94.1172 30.1037 93.2266 30.483 92.4638C30.8622 91.701 31.3949 91.1087 32.081 90.6868C32.767 90.2649 33.5703 90.054 34.4908 90.054C35.4112 90.054 36.2145 90.2649 36.9006 90.6868C37.5866 91.1087 38.1193 91.701 38.4986 92.4638C38.8778 93.2266 39.0675 94.1172 39.0675 95.1357C39.0675 96.1499 38.8778 97.0362 38.4986 97.7947C38.1193 98.5533 37.5866 99.1435 36.9006 99.5653C36.2145 99.9872 35.4112 100.198 34.4908 100.198ZM34.4972 98.5938C35.0938 98.5938 35.5881 98.4361 35.9801 98.1207C36.3722 97.8054 36.6619 97.3857 36.8494 96.8615C37.0412 96.3374 37.1371 95.7599 37.1371 95.1293C37.1371 94.5028 37.0412 93.9276 36.8494 93.4034C36.6619 92.875 36.3722 92.451 35.9801 92.1314C35.5881 91.8118 35.0938 91.652 34.4972 91.652C33.8963 91.652 33.3977 91.8118 33.0014 92.1314C32.6094 92.451 32.3175 92.875 32.1257 93.4034C31.9382 93.9276 31.8445 94.5028 31.8445 95.1293C31.8445 95.7599 31.9382 96.3374 32.1257 96.8615C32.3175 97.3857 32.6094 97.8054 33.0014 98.1207C33.3977 98.4361 33.8963 98.5938 34.4972 98.5938ZM44.0581 100.217C43.4359 100.217 42.8734 100.102 42.3706 99.8722C41.8677 99.6378 41.4693 99.299 41.1752 98.8558C40.8855 98.4126 40.7406 97.8693 40.7406 97.2259C40.7406 96.6719 40.8471 96.2159 41.0602 95.858C41.2733 95.5 41.5609 95.2166 41.9231 95.0078C42.2853 94.799 42.6902 94.6413 43.1376 94.5348C43.585 94.4283 44.041 94.3473 44.5055 94.2919C45.0936 94.2237 45.5708 94.1683 45.9373 94.1257C46.3038 94.0788 46.5701 94.0043 46.7363 93.902C46.9025 93.7997 46.9856 93.6335 46.9856 93.4034V93.3587C46.9856 92.8004 46.8279 92.3679 46.5126 92.0611C46.2015 91.7543 45.737 91.6009 45.1191 91.6009C44.4757 91.6009 43.9686 91.7436 43.5978 92.0291C43.2314 92.3104 42.9778 92.6236 42.8372 92.9688L41.041 92.5597C41.2541 91.9631 41.5652 91.4815 41.9743 91.1151C42.3876 90.7443 42.8627 90.4759 43.3997 90.3097C43.9366 90.1392 44.5012 90.054 45.0936 90.054C45.4856 90.054 45.9011 90.1009 46.34 90.1946C46.7832 90.2841 47.1966 90.4503 47.5801 90.6932C47.9679 90.9361 48.2853 91.2834 48.5325 91.7351C48.7797 92.1825 48.9032 92.7642 48.9032 93.4801V100H47.0368V98.6577H46.9601C46.8365 98.9048 46.6511 99.1477 46.4039 99.3864C46.1568 99.625 45.8393 99.8232 45.4515 99.9808C45.0637 100.138 44.5993 100.217 44.0581 100.217ZM44.4735 98.6832C45.002 98.6832 45.4537 98.5788 45.8287 98.37C46.2079 98.1612 46.4956 97.8885 46.6916 97.5518C46.8919 97.2109 46.992 96.8466 46.992 96.4588V95.1932C46.9238 95.2614 46.7917 95.3253 46.5957 95.3849C46.4039 95.4403 46.1845 95.4893 45.9373 95.532C45.6902 95.5703 45.4494 95.6065 45.215 95.6406C44.9806 95.6705 44.7846 95.696 44.627 95.7173C44.2562 95.7642 43.9174 95.843 43.6106 95.9538C43.3081 96.0646 43.0652 96.2244 42.8819 96.4332C42.7029 96.6378 42.6135 96.9105 42.6135 97.2514C42.6135 97.7244 42.7882 98.0824 43.1376 98.3253C43.487 98.5639 43.9324 98.6832 44.4735 98.6832ZM55.1243 100.192C54.3317 100.192 53.6243 99.9893 53.0021 99.5845C52.3842 99.1754 51.8984 98.5937 51.5447 97.8395C51.1953 97.081 51.0206 96.1712 51.0206 95.1101C51.0206 94.049 51.1974 93.1413 51.5511 92.3871C51.9091 91.6328 52.3991 91.0554 53.0213 90.6548C53.6435 90.2543 54.3487 90.054 55.1371 90.054C55.7464 90.054 56.2365 90.1562 56.6072 90.3608C56.9822 90.5611 57.272 90.7955 57.4766 91.0639C57.6854 91.3324 57.8473 91.5689 57.9624 91.7734H58.0774V86.9091H59.9886V100H58.1222V98.4723H57.9624C57.8473 98.6811 57.6811 98.9197 57.4638 99.1882C57.2507 99.4567 56.9567 99.6911 56.5817 99.8913C56.2067 100.092 55.7209 100.192 55.1243 100.192ZM55.5462 98.5618C56.0959 98.5618 56.5604 98.4169 56.9396 98.1271C57.3232 97.8331 57.6129 97.4261 57.8089 96.9062C58.0092 96.3864 58.1094 95.7812 58.1094 95.0909C58.1094 94.4091 58.0114 93.8125 57.8153 93.3011C57.6193 92.7898 57.3317 92.3913 56.9524 92.1058C56.5732 91.8203 56.1044 91.6776 55.5462 91.6776C54.9709 91.6776 54.4915 91.8267 54.108 92.125C53.7244 92.4233 53.4347 92.8303 53.2386 93.3459C53.0469 93.8615 52.951 94.4432 52.951 95.0909C52.951 95.7472 53.049 96.3374 53.245 96.8615C53.4411 97.3857 53.7308 97.8011 54.1143 98.108C54.5021 98.4105 54.9794 98.5618 55.5462 98.5618ZM70.3374 100.217C69.7152 100.217 69.1527 100.102 68.6499 99.8722C68.147 99.6378 67.7486 99.299 67.4545 98.8558C67.1648 98.4126 67.0199 97.8693 67.0199 97.2259C67.0199 96.6719 67.1264 96.2159 67.3395 95.858C67.5526 95.5 67.8402 95.2166 68.2024 95.0078C68.5646 94.799 68.9695 94.6413 69.4169 94.5348C69.8643 94.4283 70.3203 94.3473 70.7848 94.2919C71.3729 94.2237 71.8501 94.1683 72.2166 94.1257C72.5831 94.0788 72.8494 94.0043 73.0156 93.902C73.1818 93.7997 73.2649 93.6335 73.2649 93.4034V93.3587C73.2649 92.8004 73.1072 92.3679 72.7919 92.0611C72.4808 91.7543 72.0163 91.6009 71.3984 91.6009C70.755 91.6009 70.2479 91.7436 69.8771 92.0291C69.5107 92.3104 69.2571 92.6236 69.1165 92.9688L67.3203 92.5597C67.5334 91.9631 67.8445 91.4815 68.2536 91.1151C68.6669 90.7443 69.142 90.4759 69.679 90.3097C70.2159 90.1392 70.7805 90.054 71.3729 90.054C71.7649 90.054 72.1804 90.1009 72.6193 90.1946C73.0625 90.2841 73.4759 90.4503 73.8594 90.6932C74.2472 90.9361 74.5646 91.2834 74.8118 91.7351C75.0589 92.1825 75.1825 92.7642 75.1825 93.4801V100H73.3161V98.6577H73.2393C73.1158 98.9048 72.9304 99.1477 72.6832 99.3864C72.4361 99.625 72.1186 99.8232 71.7308 99.9808C71.343 100.138 70.8786 100.217 70.3374 100.217ZM70.7528 98.6832C71.2813 98.6832 71.733 98.5788 72.108 98.37C72.4872 98.1612 72.7749 97.8885 72.9709 97.5518C73.1712 97.2109 73.2713 96.8466 73.2713 96.4588V95.1932C73.2031 95.2614 73.071 95.3253 72.875 95.3849C72.6832 95.4403 72.4638 95.4893 72.2166 95.532C71.9695 95.5703 71.7287 95.6065 71.4943 95.6406C71.2599 95.6705 71.0639 95.696 70.9062 95.7173C70.5355 95.7642 70.1967 95.843 69.8899 95.9538C69.5874 96.0646 69.3445 96.2244 69.1612 96.4332C68.9822 96.6378 68.8928 96.9105 68.8928 97.2514C68.8928 97.7244 69.0675 98.0824 69.4169 98.3253C69.7663 98.5639 70.2116 98.6832 70.7528 98.6832ZM82.6452 100V86.9091H87.3114C88.3299 86.9091 89.1737 87.0945 89.8427 87.4652C90.5117 87.8359 91.0124 88.343 91.3448 88.9865C91.6772 89.6257 91.8434 90.3459 91.8434 91.147C91.8434 91.9524 91.6751 92.6768 91.3384 93.3203C91.006 93.9595 90.5032 94.4666 89.8299 94.8416C89.1609 95.2124 88.3192 95.3977 87.305 95.3977H84.0962V93.723H87.1261C87.7695 93.723 88.2915 93.6122 88.6921 93.3906C89.0927 93.1648 89.3867 92.858 89.5742 92.4702C89.7617 92.0824 89.8555 91.6413 89.8555 91.147C89.8555 90.6527 89.7617 90.2138 89.5742 89.8303C89.3867 89.4467 89.0906 89.1463 88.6857 88.929C88.2852 88.7116 87.7567 88.603 87.1005 88.603H84.6204V100H82.6452ZM94.0055 100V90.1818H95.8528V91.7415H95.9551C96.1341 91.2131 96.4494 90.7976 96.9011 90.495C97.3571 90.1882 97.8727 90.0348 98.448 90.0348C98.5673 90.0348 98.7079 90.0391 98.8699 90.0476C99.036 90.0561 99.166 90.0668 99.2598 90.0795V91.9077C99.1831 91.8864 99.0467 91.8629 98.8507 91.8374C98.6547 91.8075 98.4586 91.7926 98.2626 91.7926C97.8109 91.7926 97.4082 91.8885 97.0545 92.0803C96.7051 92.2678 96.4281 92.5298 96.2235 92.8665C96.019 93.1989 95.9167 93.5781 95.9167 94.0043V100H94.0055ZM104.698 100.198C103.777 100.198 102.974 99.9872 102.288 99.5653C101.602 99.1435 101.069 98.5533 100.69 97.7947C100.311 97.0362 100.121 96.1499 100.121 95.1357C100.121 94.1172 100.311 93.2266 100.69 92.4638C101.069 91.701 101.602 91.1087 102.288 90.6868C102.974 90.2649 103.777 90.054 104.698 90.054C105.618 90.054 106.422 90.2649 107.108 90.6868C107.794 91.1087 108.326 91.701 108.706 92.4638C109.085 93.2266 109.275 94.1172 109.275 95.1357C109.275 96.1499 109.085 97.0362 108.706 97.7947C108.326 98.5533 107.794 99.1435 107.108 99.5653C106.422 99.9872 105.618 100.198 104.698 100.198ZM104.704 98.5938C105.301 98.5938 105.795 98.4361 106.187 98.1207C106.579 97.8054 106.869 97.3857 107.056 96.8615C107.248 96.3374 107.344 95.7599 107.344 95.1293C107.344 94.5028 107.248 93.9276 107.056 93.4034C106.869 92.875 106.579 92.451 106.187 92.1314C105.795 91.8118 105.301 91.652 104.704 91.652C104.103 91.652 103.605 91.8118 103.208 92.1314C102.816 92.451 102.525 92.875 102.333 93.4034C102.145 93.9276 102.051 94.5028 102.051 95.1293C102.051 95.7599 102.145 96.3374 102.333 96.8615C102.525 97.3857 102.816 97.8054 103.208 98.1207C103.605 98.4361 104.103 98.5938 104.704 98.5938ZM116.08 90.1818V91.7159H110.532V90.1818H116.08ZM112.053 100V89.044C112.053 88.4304 112.188 87.9212 112.456 87.5163C112.725 87.1072 113.08 86.8026 113.524 86.6023C113.967 86.3977 114.448 86.2955 114.968 86.2955C115.352 86.2955 115.68 86.3274 115.953 86.3913C116.225 86.451 116.428 86.5064 116.56 86.5575L116.112 88.1044C116.023 88.0788 115.908 88.049 115.767 88.0149C115.627 87.9766 115.456 87.9574 115.256 87.9574C114.791 87.9574 114.459 88.0724 114.259 88.3026C114.063 88.5327 113.965 88.8651 113.965 89.2997V100H112.053ZM118.052 100V90.1818H119.964V100H118.052ZM119.018 88.6669C118.685 88.6669 118.4 88.5561 118.161 88.3345C117.927 88.1087 117.809 87.8402 117.809 87.5291C117.809 87.2138 117.927 86.9453 118.161 86.7237C118.4 86.4979 118.685 86.3849 119.018 86.3849C119.35 86.3849 119.633 86.4979 119.868 86.7237C120.106 86.9453 120.226 87.2138 120.226 87.5291C120.226 87.8402 120.106 88.1087 119.868 88.3345C119.633 88.5561 119.35 88.6669 119.018 88.6669ZM124.446 86.9091V100H122.535V86.9091H124.446ZM131.249 100.198C130.281 100.198 129.448 99.9915 128.749 99.5781C128.055 99.1605 127.518 98.5746 127.139 97.8203C126.764 97.0618 126.576 96.1733 126.576 95.1548C126.576 94.1491 126.764 93.2628 127.139 92.4957C127.518 91.7287 128.046 91.13 128.724 90.6996C129.406 90.2692 130.203 90.054 131.115 90.054C131.669 90.054 132.205 90.1456 132.725 90.3288C133.245 90.5121 133.712 90.7997 134.125 91.1918C134.539 91.5838 134.865 92.093 135.103 92.7195C135.342 93.3416 135.461 94.098 135.461 94.9886V95.6662H127.656V94.2344H133.588C133.588 93.7315 133.486 93.2862 133.281 92.8984C133.077 92.5064 132.789 92.1974 132.419 91.9716C132.052 91.7457 131.622 91.6328 131.127 91.6328C130.59 91.6328 130.122 91.7649 129.721 92.0291C129.325 92.2891 129.018 92.63 128.801 93.0518C128.588 93.4695 128.481 93.9233 128.481 94.4134V95.532C128.481 96.1882 128.596 96.7464 128.826 97.2067C129.061 97.6669 129.387 98.0185 129.804 98.2614C130.222 98.5 130.71 98.6193 131.268 98.6193C131.63 98.6193 131.96 98.5682 132.259 98.4659C132.557 98.3594 132.815 98.2017 133.032 97.9929C133.249 97.7841 133.416 97.5263 133.531 97.2195L135.34 97.5455C135.195 98.0781 134.935 98.5447 134.56 98.9453C134.189 99.3416 133.722 99.6506 133.16 99.8722C132.602 100.089 131.965 100.198 131.249 100.198ZM142.499 100V86.9091H147.165C148.183 86.9091 149.027 87.0945 149.696 87.4652C150.365 87.8359 150.866 88.343 151.198 88.9865C151.531 89.6257 151.697 90.3459 151.697 91.147C151.697 91.9524 151.529 92.6768 151.192 93.3203C150.86 93.9595 150.357 94.4666 149.683 94.8416C149.014 95.2124 148.173 95.3977 147.159 95.3977H143.95V93.723H146.98C147.623 93.723 148.145 93.6122 148.546 93.3906C148.946 93.1648 149.24 92.858 149.428 92.4702C149.615 92.0824 149.709 91.6413 149.709 91.147C149.709 90.6527 149.615 90.2138 149.428 89.8303C149.24 89.4467 148.944 89.1463 148.539 88.929C148.139 88.7116 147.61 88.603 146.954 88.603H144.474V100H142.499ZM153.859 100V90.1818H155.77V100H153.859ZM154.824 88.6669C154.492 88.6669 154.206 88.5561 153.968 88.3345C153.733 88.1087 153.616 87.8402 153.616 87.5291C153.616 87.2138 153.733 86.9453 153.968 86.7237C154.206 86.4979 154.492 86.3849 154.824 86.3849C155.157 86.3849 155.44 86.4979 155.674 86.7237C155.913 86.9453 156.032 87.2138 156.032 87.5291C156.032 87.8402 155.913 88.1087 155.674 88.3345C155.44 88.5561 155.157 88.6669 154.824 88.6669ZM162.477 100.198C161.527 100.198 160.709 99.983 160.023 99.5526C159.341 99.1179 158.817 98.5192 158.45 97.7564C158.084 96.9936 157.9 96.12 157.9 95.1357C157.9 94.1385 158.088 93.2585 158.463 92.4957C158.838 91.7287 159.366 91.13 160.048 90.6996C160.73 90.2692 161.533 90.054 162.458 90.054C163.204 90.054 163.868 90.1925 164.452 90.4695C165.036 90.7422 165.507 91.1257 165.865 91.62C166.227 92.1143 166.442 92.6918 166.51 93.3523H164.65C164.548 92.892 164.314 92.4957 163.947 92.1634C163.585 91.831 163.099 91.6648 162.49 91.6648C161.957 91.6648 161.491 91.8054 161.09 92.0866C160.694 92.3636 160.385 92.7599 160.163 93.2756C159.942 93.7869 159.831 94.392 159.831 95.0909C159.831 95.8068 159.939 96.4247 160.157 96.9446C160.374 97.4645 160.681 97.8672 161.077 98.1527C161.478 98.4382 161.949 98.581 162.49 98.581C162.852 98.581 163.18 98.5149 163.474 98.3828C163.773 98.2464 164.022 98.0526 164.222 97.8011C164.427 97.5497 164.569 97.2472 164.65 96.8935H166.51C166.442 97.5284 166.236 98.0952 165.89 98.5938C165.545 99.0923 165.083 99.4844 164.503 99.7699C163.928 100.055 163.253 100.198 162.477 100.198ZM173.137 90.1818V91.7159H167.775V90.1818H173.137ZM169.213 87.8295H171.124V97.1172C171.124 97.4879 171.179 97.767 171.29 97.9545C171.401 98.1378 171.544 98.2635 171.718 98.3317C171.897 98.3956 172.091 98.4276 172.3 98.4276C172.453 98.4276 172.588 98.4169 172.703 98.3956C172.818 98.3743 172.907 98.3572 172.971 98.3445L173.316 99.9233C173.206 99.9659 173.048 100.009 172.843 100.051C172.639 100.098 172.383 100.124 172.076 100.128C171.574 100.136 171.105 100.047 170.67 99.8594C170.235 99.6719 169.884 99.3821 169.615 98.9901C169.347 98.598 169.213 98.1058 169.213 97.5135V87.8295ZM181.471 95.9283V90.1818H183.389V100H181.509V98.2997H181.407C181.181 98.8239 180.819 99.2607 180.32 99.6101C179.826 99.9553 179.21 100.128 178.473 100.128C177.843 100.128 177.284 99.9893 176.798 99.7124C176.317 99.4311 175.938 99.0156 175.661 98.4659C175.388 97.9162 175.252 97.2365 175.252 96.4268V90.1818H177.163V96.1967C177.163 96.8658 177.348 97.3984 177.719 97.7947C178.09 98.1911 178.571 98.3892 179.164 98.3892C179.521 98.3892 179.877 98.2997 180.231 98.1207C180.589 97.9418 180.885 97.6712 181.119 97.3089C181.358 96.9467 181.475 96.4865 181.471 95.9283ZM185.957 100V90.1818H187.804V91.7415H187.906C188.085 91.2131 188.401 90.7976 188.852 90.495C189.308 90.1882 189.824 90.0348 190.399 90.0348C190.518 90.0348 190.659 90.0391 190.821 90.0476C190.987 90.0561 191.117 90.0668 191.211 90.0795V91.9077C191.134 91.8864 190.998 91.8629 190.802 91.8374C190.606 91.8075 190.41 91.7926 190.214 91.7926C189.762 91.7926 189.359 91.8885 189.006 92.0803C188.656 92.2678 188.379 92.5298 188.175 92.8665C187.97 93.1989 187.868 93.5781 187.868 94.0043V100H185.957ZM196.745 100.198C195.778 100.198 194.944 99.9915 194.246 99.5781C193.551 99.1605 193.014 98.5746 192.635 97.8203C192.26 97.0618 192.072 96.1733 192.072 95.1548C192.072 94.1491 192.26 93.2628 192.635 92.4957C193.014 91.7287 193.542 91.13 194.22 90.6996C194.902 90.2692 195.699 90.054 196.611 90.054C197.165 90.054 197.702 90.1456 198.221 90.3288C198.741 90.5121 199.208 90.7997 199.621 91.1918C200.035 91.5838 200.361 92.093 200.599 92.7195C200.838 93.3416 200.957 94.098 200.957 94.9886V95.6662H193.153V94.2344H199.084C199.084 93.7315 198.982 93.2862 198.778 92.8984C198.573 92.5064 198.285 92.1974 197.915 91.9716C197.548 91.7457 197.118 91.6328 196.623 91.6328C196.086 91.6328 195.618 91.7649 195.217 92.0291C194.821 92.2891 194.514 92.63 194.297 93.0518C194.084 93.4695 193.977 93.9233 193.977 94.4134V95.532C193.977 96.1882 194.092 96.7464 194.322 97.2067C194.557 97.6669 194.883 98.0185 195.3 98.2614C195.718 98.5 196.206 98.6193 196.764 98.6193C197.126 98.6193 197.456 98.5682 197.755 98.4659C198.053 98.3594 198.311 98.2017 198.528 97.9929C198.746 97.7841 198.912 97.5263 199.027 97.2195L200.836 97.5455C200.691 98.0781 200.431 98.5447 200.056 98.9453C199.685 99.3416 199.219 99.6506 198.656 99.8722C198.098 100.089 197.461 100.198 196.745 100.198Z" fill="#BFBFBF"/>
<path d="M84.7917 25.6132H91.8758V46.6283C91.8758 48.7604 93.6045 50.487 95.7345 50.487H106.267C108.397 50.487 110.126 48.7605 110.126 46.6283V25.6132H117.208C118.381 25.6132 119.435 24.9068 119.887 23.8227C120.333 22.7429 120.085 21.4947 119.256 20.6658L103.048 4.45663C101.916 3.32696 100.083 3.32696 98.9483 4.45663L82.7439 20.6658C81.9148 21.4947 81.6664 22.7408 82.1153 23.8227C82.5661 24.9047 83.6185 25.6132 84.7917 25.6132Z" fill="#BFBFBF"/>
<path d="M132.519 33.4897C130.599 33.4897 129.041 35.0479 129.041 36.9702V51.5234C129.041 55.883 125.492 59.4295 121.132 59.4295H80.8673C76.5075 59.4295 72.961 55.883 72.961 51.5234V36.9702C72.961 35.0479 71.4007 33.4897 69.4805 33.4897C67.558 33.4897 66 35.0479 66 36.9704V51.5235C66 59.7212 72.6693 66.3908 80.8673 66.3908H121.132C129.33 66.3908 136 59.7213 136 51.5235V36.9704C136 35.0479 134.442 33.4897 132.519 33.4897Z" fill="#BFBFBF"/>
</svg>
